<?xml version="1.0" encoding="utf-8"?>
<!-- Generator: Adobe Illustrator 25.2.1, SVG Export Plug-In . SVG Version: 6.00 Build 0)  -->
<svg version="1.1" id="Layer_1" xmlns="http://www.w3.org/2000/svg" xmlns:xlink="http://www.w3.org/1999/xlink" x="0px" y="0px"
	 viewBox="0 0 1000 1000" style="enable-background:new 0 0 1000 1000;" xml:space="preserve">
<style type="text/css">
	.st0{fill:#FFFFFF;}
</style>
<g>
	<g>
		<path class="st0" d="M842.07,63.25H157.93C94.46,63.25,43,114.71,43,178.18v0c0,63.48,51.46,114.93,114.93,114.93h684.13
			c63.48,0,114.93-51.46,114.93-114.93v0C957,114.71,905.54,63.25,842.07,63.25z"/>
	</g>
	<g>
		<path class="st0" d="M842.07,385.07H157.93C94.46,385.07,43,436.52,43,500v0c0,63.48,51.46,114.93,114.93,114.93h684.13
			C905.54,614.93,957,563.48,957,500v0C957,436.52,905.54,385.07,842.07,385.07z"/>
	</g>
	<g>
		<path class="st0" d="M842.07,706.88H157.93C94.46,706.88,43,758.34,43,821.82v0c0,63.48,51.46,114.93,114.93,114.93h684.13
			c63.48,0,114.93-51.46,114.93-114.93v0C957,758.34,905.54,706.88,842.07,706.88z"/>
	</g>
</g>
</svg>
