<?xml version="1.0" encoding="utf-8"?>
<!-- Generator: Adobe Illustrator 25.2.1, SVG Export Plug-In . SVG Version: 6.00 Build 0)  -->
<svg version="1.1" id="Layer_1" xmlns="http://www.w3.org/2000/svg" xmlns:xlink="http://www.w3.org/1999/xlink" x="0px" y="0px"
	 viewBox="0 0 1000 1000" style="enable-background:new 0 0 1000 1000;" xml:space="preserve">
<style type="text/css">
	.st0{fill:#FFFFFF;}
</style>
<g>
	<path class="st0" d="M940.18,307.86L545.2,556.66l-15.48,9.75c-11.3,7.12-25.66,7.25-37.09,0.34l-13.1-7.93L70.31,311.3
		c-9.14,6.88-15.06,17.82-15.06,30.14v484.13c0,20.82,16.87,37.69,37.69,37.69h830.12c20.82,0,37.69-16.87,37.69-37.69V341.43
		C960.75,326.79,952.39,314.1,940.18,307.86z"/>
	<path class="st0" d="M80.76,259.87l398.77,241.2l9.5,5.75c13.64,8.25,30.76,8.09,44.25-0.4l11.92-7.51l381.54-240.33
		c5.72-3.61,3.27-12.55-3.5-12.59c-0.06,0-0.12,0-0.18,0H92.94c-3.72,0-7.32,0.54-10.71,1.55
		C76.61,249.21,75.75,256.84,80.76,259.87z"/>
</g>
</svg>
