<?xml version="1.0" encoding="utf-8"?>
<!-- Generator: Adobe Illustrator 25.2.1, SVG Export Plug-In . SVG Version: 6.00 Build 0)  -->
<svg version="1.1" id="Layer_1" xmlns="http://www.w3.org/2000/svg" xmlns:xlink="http://www.w3.org/1999/xlink" x="0px" y="0px"
	 viewBox="0 0 1000 1000" style="enable-background:new 0 0 1000 1000;" xml:space="preserve">
<style type="text/css">
	.st0{fill:#FFFFFF;}
</style>
<g>
	<path class="st0" d="M752,829c-253.5,0-459-205.5-459-459c0-115.5,42.66-221.02,113.08-301.7C254.51,141.84,150,297.21,150,477
		c0,250.74,203.26,454,454,454c127.72,0,243.12-52.74,325.61-137.63C874.98,816.31,814.97,829,752,829z"/>
</g>
<g>
	<path class="st0" d="M436.57,396.67l-38.53-6c-1.44-0.22-2.89,0.27-3.89,1.33l-26.78,28.34c-2.52,2.66-6.99,1.28-7.58-2.33
		l-6.2-38.49c-0.23-1.44-1.15-2.67-2.47-3.29l-35.23-16.71c-3.31-1.57-3.38-6.26-0.12-7.93l34.69-17.79
		c1.29-0.66,2.18-1.92,2.37-3.37l5.01-38.67c0.47-3.63,4.9-5.15,7.5-2.57l27.64,27.5c1.03,1.03,2.5,1.48,3.93,1.21l38.32-7.18
		c3.6-0.68,6.41,3.07,4.76,6.34l-17.61,34.79c-0.66,1.3-0.63,2.84,0.06,4.11l18.67,34.23C442.89,393.4,440.19,397.23,436.57,396.67z
		"/>
</g>
<g>
	<path class="st0" d="M521.81,261.46l-18.13,2.38c-0.68,0.09-1.27,0.5-1.58,1.11l-8.32,16.29c-0.78,1.53-2.98,1.5-3.72-0.05
		l-7.87-16.51c-0.29-0.62-0.87-1.05-1.55-1.16l-18.06-2.88c-1.7-0.27-2.35-2.37-1.1-3.55l13.27-12.58c0.5-0.47,0.73-1.15,0.62-1.83
		l-2.84-18.07c-0.27-1.7,1.53-2.96,3.04-2.14l16.07,8.73c0.6,0.33,1.32,0.34,1.93,0.03l16.3-8.29c1.53-0.78,3.29,0.54,2.98,2.23
		l-3.34,17.98c-0.12,0.67,0.09,1.36,0.57,1.84l12.92,12.94C524.22,259.16,523.51,261.24,521.81,261.46z"/>
</g>
<g>
	<path class="st0" d="M639.43,507.53l-51.74,9.69c-1.93,0.36-3.56,1.65-4.36,3.44l-21.35,48.11c-2.01,4.52-8.33,4.78-10.69,0.44
		L526.09,523c-0.94-1.72-2.67-2.88-4.62-3.08l-52.35-5.44c-4.92-0.51-7.12-6.44-3.72-10.04l36.16-38.25
		c1.35-1.43,1.91-3.43,1.5-5.35l-11-51.47c-1.03-4.84,3.93-8.76,8.4-6.64L548,425.31c1.77,0.84,3.85,0.76,5.55-0.23l45.55-26.37
		c4.28-2.48,9.54,1.03,8.91,5.93l-6.78,52.2c-0.25,1.95,0.47,3.9,1.93,5.21l39.16,35.17C646,500.53,644.29,506.62,639.43,507.53z"/>
</g>
</svg>
