<?xml version="1.0" encoding="utf-8"?>
<!-- Generator: Adobe Illustrator 25.2.1, SVG Export Plug-In . SVG Version: 6.00 Build 0)  -->
<svg version="1.1" id="Layer_1" xmlns="http://www.w3.org/2000/svg" xmlns:xlink="http://www.w3.org/1999/xlink" x="0px" y="0px"
	 viewBox="0 0 1000 1000" style="enable-background:new 0 0 1000 1000;" xml:space="preserve">
<style type="text/css">
	.st0{fill:#FFFFFF;}
	.st1{fill:none;}
</style>
<path class="st0" d="M299.04,344.83c0-33.46-0.17-62.02,0.04-90.57c0.38-53.16,18.95-78.8,70.35-91.95
	c23.88-6.11,48.97-7.47,76.85-11.46c0,202.93,0,401.05,0,601.64c-39.24,0-77.62,0-118.71,0c-3.76-10.02-8.03-21.42-11.55-30.8
	c-28.63,13.71-55.21,31.99-84.52,39.37C156.33,780,82.47,737.93,50.92,659.37c-31.23-77.8-33.39-157.44,0.8-234.97
	C98.45,318.48,193.31,286.64,299.04,344.83z M299.03,535.19c0-15.06-1.37-30.28,0.3-45.16c3.09-27.6-4.85-46.78-34.3-52.28
	c-29.44-5.5-56.57-2.12-70.02,28.63c-21.15,48.37-20.39,98.08,0.32,146.25c12.39,28.82,38.75,34.89,66.68,28.01
	c26.07-6.42,39.75-23.99,37.3-52.75C297.82,570.44,299.03,552.77,299.03,535.19z"/>
<path class="st0" d="M471.04,900.63c70.24-33.48,91.03-93.46,91.26-164.77c0.38-122.04,1.07-244.08,1.61-366.12
	c0.06-13.63,0.01-27.27,0.01-43.15c50.22,0,97.51,0,145.05,0c1.22,1.74,3.92,3.78,3.9,5.8c-1.3,147.15-0.12,294.4-5.34,441.41
	c-3.01,84.84-57.49,135.11-142.89,141.46c-30.58,2.27-61.68-2.54-92.55-4.11C471.74,907.65,471.39,904.14,471.04,900.63z"/>
<path class="st0" d="M884.51,755.46c-46.91-1.45-84.88-41.18-84.15-88.06c0.75-47.94,42.49-87.5,90.6-85.88
	c48.44,1.64,85.01,42.34,82.97,92.35C971.98,721.25,932.86,756.95,884.51,755.46z"/>
<path class="st0" d="M641.23,73.21c46.96-0.15,87.01,38.15,88.46,84.6c1.45,46.28-40.78,89.58-87.71,89.94
	c-47.32,0.36-89.05-41.93-87.97-89.15C555.08,111.5,594.04,73.36,641.23,73.21z"/>
<path class="st1" d="M299.03,535.19c0,17.58-1.21,35.25,0.27,52.7c2.45,28.76-11.23,46.33-37.3,52.75
	c-27.94,6.88-54.29,0.81-66.68-28.01c-20.71-48.17-21.46-97.88-0.32-146.25c13.45-30.76,40.59-34.13,70.02-28.63
	c29.45,5.5,37.39,24.68,34.3,52.28C297.66,504.91,299.03,520.12,299.03,535.19z"/>
</svg>
