<?xml version="1.0" encoding="utf-8"?>
<!-- Generator: Adobe Illustrator 25.2.1, SVG Export Plug-In . SVG Version: 6.00 Build 0)  -->
<svg version="1.1" id="Layer_1" xmlns="http://www.w3.org/2000/svg" xmlns:xlink="http://www.w3.org/1999/xlink" x="0px" y="0px"
	 viewBox="0 0 1000 1000" style="enable-background:new 0 0 1000 1000;" xml:space="preserve">
<style type="text/css">
	.st0{fill:#FFFFFF;}
	.st1{fill:#FFFFFF;stroke:#000000;stroke-miterlimit:10;}
	.st2{fill:none;}
</style>
<path class="st0" d="M26.5,127.5c51.29-7.35,143.47-13.78,251.73,17.53c105.05,30.38,178.02,82.64,217.47,115.53
	c0,218.4,0,436.81,0,655.21c-51.9-29.01-126.36-63.5-220.66-85.66C174.73,806.53,87.88,805.35,26.5,809.23
	C26.5,581.98,26.5,354.74,26.5,127.5z"/>
<path class="st0" d="M49.88,88.59c48.73-7.94,136.32-14.9,239.18,18.95c99.81,32.84,169.14,89.34,206.64,124.91
	c0,236.13,0,472.26,0,708.39c-49.32-31.36-120.06-68.65-209.66-92.61c-95.31-25.49-177.83-26.76-236.16-22.57
	C49.88,579.96,49.88,334.27,49.88,88.59z"/>
<path class="st1" d="M26.5,809.23"/>
<path class="st0" d="M988,127.5c-51.29-7.35-143.47-13.78-251.73,17.53C631.23,175.4,558.26,227.66,518.8,260.55
	c0,218.4,0,436.81,0,655.21c51.9-29.01,126.36-63.5,220.66-85.66c100.31-23.57,187.16-24.75,248.54-20.88
	C988,581.98,988,354.74,988,127.5z"/>
<path class="st0" d="M964.62,88.59c-48.73-7.94-136.32-14.9-239.18,18.95c-99.81,32.84-169.14,89.34-206.64,124.91
	c0,236.13,0,472.26,0,708.39c49.32-31.36,120.06-68.65,209.66-92.61c95.31-25.49,177.83-26.76,236.16-22.57
	C964.62,579.96,964.62,334.27,964.62,88.59z"/>
<path class="st0" d="M988,809.23"/>
<path class="st0" d="M495.7,940.83c0.61,0.76,4.19,5.08,10.36,5.58c7.56,0.61,12.33-5.06,12.75-5.58"/>
<path class="st0" d="M495.7,232.44c1.98-1.11,6.96-3.54,13.54-2.98c4.37,0.37,7.68,1.91,9.56,2.98"/>
<path class="st2" d="M141.06,220.87c39.77,1.72,94.38,8.27,155.96,28.89c57.74,19.33,102.9,44.77,134.83,66.05"/>
<path class="st2" d="M145.57,362.47c39.77,1.72,94.38,8.27,155.96,28.89c57.74,19.33,102.9,44.77,134.83,66.05"/>
<path class="st2" d="M145.57,491.52c39.77,1.72,94.38,8.27,155.96,28.89c57.74,19.33,102.9,44.77,134.83,66.05"/>
<path class="st2" d="M140.79,625.35c39.77,1.72,94.38,8.27,155.96,28.89c57.74,19.33,102.9,44.77,134.83,66.05"/>
<path class="st2" d="M874.22,214.5c-39.77,1.72-94.38,8.27-155.96,28.89c-57.74,19.33-102.9,44.77-134.83,66.05"/>
<path class="st2" d="M869.71,356.1c-39.77,1.72-94.38,8.27-155.96,28.89c-57.74,19.33-102.9,44.77-134.83,66.05"/>
<path class="st2" d="M869.71,485.15c-39.77,1.72-94.38,8.27-155.96,28.89c-57.74,19.33-102.9,44.77-134.83,66.05"/>
<path class="st2" d="M874.49,618.98c-39.77,1.72-94.38,8.27-155.96,28.89c-57.74,19.33-102.9,44.77-134.83,66.05"/>
</svg>
