<?xml version="1.0" encoding="utf-8"?>
<!-- Generator: Adobe Illustrator 25.2.1, SVG Export Plug-In . SVG Version: 6.00 Build 0)  -->
<svg version="1.1" id="Layer_1" xmlns="http://www.w3.org/2000/svg" xmlns:xlink="http://www.w3.org/1999/xlink" x="0px" y="0px"
	 viewBox="0 0 1000 1000" style="enable-background:new 0 0 1000 1000;" xml:space="preserve">
<style type="text/css">
	.st0{fill:#FFFFFF;}
</style>
<g>
	<path class="st0" d="M777.62,960.31c-7.63,0-15.1-2.51-21.62-7.24L522.37,783.33c-6.55-4.76-14.28-7.26-22.37-7.26
		c-8.09,0-15.82,2.52-22.37,7.26L244,953.08c-6.52,4.74-13.99,7.23-21.62,7.24c-11.86,0-23.21-5.86-30.34-15.68
		c-6.98-9.61-8.75-21.3-4.97-32.91l89.24-274.65c5.1-15.72-0.44-32.83-13.82-42.54L28.84,424.78c-13.21-9.6-18.48-25.84-13.44-41.36
		c5.04-15.54,18.86-25.57,35.19-25.57h288.8c16.53,0,31.08-10.57,36.19-26.29L464.81,56.9c5.04-15.55,18.86-25.58,35.19-25.58
		s30.14,10.03,35.19,25.57l89.24,274.65c5.12,15.72,19.65,26.29,36.19,26.29H949.4c16.33,0,30.14,10.03,35.19,25.57
		c5.04,15.54-0.23,31.76-13.44,41.36L737.52,594.51c-13.38,9.71-18.93,26.82-13.82,42.54l89.24,274.65
		c3.78,11.62,2.01,23.3-4.97,32.91C800.83,954.45,789.48,960.31,777.62,960.31z"/>
	<path class="st0" d="M500,31.85c16.09,0,29.71,9.89,34.69,25.2l89.24,274.65c5.18,15.95,19.92,26.66,36.69,26.66h288.79
		c16.09,0,29.71,9.89,34.69,25.2c4.98,15.31-0.23,31.31-13.25,40.77L737.2,594.09c-13.57,9.85-19.2,27.19-14.01,43.13l89.24,274.65
		c3.73,11.45,1.98,22.98-4.89,32.44c-7.04,9.69-18.22,15.47-29.92,15.47c-7.51,0-14.88-2.46-21.3-7.14L522.67,782.9
		c-6.63-4.82-14.47-7.37-22.67-7.37c-8.2,0-16.04,2.55-22.67,7.37L243.69,952.65c-6.42,4.67-13.8,7.14-21.3,7.14
		c-11.69,0-22.88-5.79-29.92-15.47c-6.88-9.47-8.62-20.99-4.89-32.44l89.24-274.65c5.18-15.95-0.45-33.28-14.01-43.13L29.16,424.34
		c-13.02-9.46-18.22-25.47-13.25-40.77c4.98-15.31,18.59-25.2,34.69-25.2h288.79c16.77,0,31.51-10.71,36.69-26.66l89.24-274.65
		C470.29,41.75,483.91,31.85,500,31.85 M500,30.8c-15.04,0-30.07,8.64-35.69,25.93l-89.24,274.65
		c-5.02,15.46-19.43,25.93-35.69,25.93H50.59c-36.35,0-51.47,46.52-22.06,67.89l233.65,169.74c13.16,9.56,18.65,26.49,13.63,41.95
		l-89.24,274.65c-8.56,26.33,12.37,49.29,35.82,49.29c7.34,0,14.92-2.24,21.92-7.34l233.64-169.75c6.58-4.78,14.31-7.17,22.06-7.17
		c7.75,0,15.48,2.39,22.06,7.17L755.7,953.5c7.01,5.09,14.59,7.34,21.92,7.34c23.45,0,44.37-22.96,35.82-49.29L724.2,636.9
		c-5.02-15.46,0.48-32.4,13.63-41.95L971.46,425.2c29.41-21.37,14.29-67.89-22.06-67.89H660.61c-16.26,0-30.66-10.47-35.69-25.93
		L535.69,56.73C530.07,39.44,515.04,30.8,500,30.8L500,30.8z"/>
</g>
</svg>
