<?xml version="1.0" encoding="utf-8"?>
<!-- Generator: Adobe Illustrator 25.2.1, SVG Export Plug-In . SVG Version: 6.00 Build 0)  -->
<svg version="1.1" id="Layer_1" xmlns="http://www.w3.org/2000/svg" xmlns:xlink="http://www.w3.org/1999/xlink" x="0px" y="0px"
	 viewBox="0 0 1000 1000" style="enable-background:new 0 0 1000 1000;" xml:space="preserve">
<style type="text/css">
	.st0{fill:#FFFFFF;stroke:#FFFFFF;stroke-miterlimit:10;}
</style>
<path class="st0" d="M993.37,437.7L868.23,325.6c-4.19-3.76-6.59-9.12-6.59-14.76v-13.33c0-10.95-8.87-19.82-19.82-19.82h-19.49
	c-4.88,0-9.58-1.8-13.23-5.06l-292.45-262c-4.34-3.88-10.91-3.9-15.25,0c-46.64,41.89-291.69,262-291.69,262
	c-3.64,3.26-8.34,5.06-13.23,5.06h-20.45c-10.95,0-19.82,8.87-19.82,19.82v14.18c0,5.64-2.4,11-6.59,14.76L25.13,437.99
	c-13.55,12.13-4.96,34.58,13.23,34.58h98.04c10.95,0,19.82,8.87,19.82,19.82v470.89c0,10.95,8.87,19.82,19.82,19.82h201.89
	c10.95,0,19.82-8.87,19.82-19.82V762.67c0-10.95,8.87-19.82,19.82-19.82h200.61c10.95,0,19.82,8.87,19.82,19.82v200.61
	c0,10.95,8.87,19.82,19.82,19.82h184c10.95,0,19.82-8.87,19.82-19.82V492.11c0-10.95,8.87-19.82,19.82-19.82h98.68
	C998.32,472.29,1006.91,449.84,993.37,437.7z"/>
</svg>
